# MagicaVoxel @ Ephtracy

# material
mtllib Sheild.mtl
usemtl palette

# normals
vn -1 0 0
vn 1 0 0
vn 0 0 1
vn 0 0 -1
vn 0 -1 0
vn 0 1 0

# texcoords
vt 0.162109 0.5
vt 0.716797 0.5
vt 0.873047 0.5

# verts
v -11 16 10
v -11 16 4
v -11 30 10
v -11 30 4
v -10 14 10
v -10 14 4
v -10 16 10
v -10 16 4
v -9 13 10
v -9 13 4
v -9 14 10
v -9 14 4
v -8 12 10
v -8 12 4
v -8 13 10
v -8 13 4
v -7 11 10
v -7 11 4
v -7 12 10
v -7 12 4
v -6 10 10
v -6 10 4
v -6 11 10
v -6 11 4
v -5 9 10
v -5 9 4
v -5 10 10
v -5 10 4
v -4 8 10
v -4 8 4
v -4 9 10
v -4 9 4
v -4 23 4
v -4 23 -0
v -4 25 4
v -4 25 -0
v -3 7 10
v -3 7 4
v -3 8 10
v -3 8 4
v -2 6 10
v -2 6 4
v -2 7 10
v -2 7 4
v -1 5 10
v -1 5 4
v -1 6 10
v -1 6 4
v 4 23 4
v 4 23 1
v 4 25 4
v 4 25 1
v -3 23 4
v -3 23 1
v -3 25 4
v -3 25 1
v 1 5 10
v 1 5 4
v 1 6 10
v 1 6 4
v 2 6 10
v 2 6 4
v 2 7 10
v 2 7 4
v 4 7 10
v 4 7 4
v 4 8 10
v 4 8 4
v 5 8 10
v 5 8 4
v 5 9 10
v 5 9 4
v 5 23 4
v 5 23 -0
v 5 25 4
v 5 25 -0
v 6 9 10
v 6 9 4
v 6 10 10
v 6 10 4
v 7 10 10
v 7 10 4
v 7 11 10
v 7 11 4
v 9 11 10
v 9 11 4
v 9 12 10
v 9 12 4
v 10 12 10
v 10 12 4
v 10 13 10
v 10 13 4
v 11 13 10
v 11 13 4
v 11 15 10
v 11 15 4
v 12 15 10
v 12 15 4
v 12 30 10
v 12 30 4
v -11 16 10
v -11 30 10
v -10 14 10
v -10 16 10
v -9 13 10
v -9 14 10
v -8 12 10
v -8 13 10
v -7 11 10
v -7 12 10
v -7 26 10
v -7 27 10
v -6 10 10
v -6 11 10
v -6 24 10
v -6 26 10
v -6 27 10
v -5 9 10
v -5 10 10
v -5 22 10
v -5 24 10
v -4 8 10
v -4 9 10
v -4 20 10
v -4 22 10
v -4 25 10
v -4 26 10
v -3 7 10
v -3 8 10
v -3 18 10
v -3 20 10
v -3 24 10
v -3 25 10
v -2 6 10
v -2 7 10
v -2 16 10
v -2 18 10
v -1 5 10
v -1 6 10
v -1 14 10
v -1 16 10
v -1 23 10
v -1 24 10
v 0 14 10
v 0 15 10
v 0 22 10
v 0 23 10
v 1 5 10
v 1 6 10
v 2 6 10
v 2 7 10
v 2 15 10
v 2 16 10
v 2 21 10
v 2 22 10
v 3 20 10
v 3 21 10
v 4 7 10
v 4 8 10
v 4 16 10
v 4 17 10
v 5 8 10
v 5 9 10
v 5 19 10
v 5 20 10
v 6 9 10
v 6 10 10
v 6 17 10
v 6 19 10
v 7 10 10
v 7 11 10
v 9 11 10
v 9 12 10
v 10 12 10
v 10 13 10
v 11 13 10
v 11 15 10
v 12 15 10
v 12 30 10
v -3 23 1
v -3 25 1
v 4 23 1
v 4 25 1
v -11 16 4
v -11 30 4
v -10 14 4
v -10 16 4
v -9 13 4
v -9 14 4
v -8 12 4
v -8 13 4
v -7 11 4
v -7 12 4
v -6 10 4
v -6 11 4
v -5 9 4
v -5 10 4
v -4 8 4
v -4 9 4
v -4 23 4
v -4 25 4
v -3 7 4
v -3 8 4
v -3 23 4
v -3 25 4
v -2 6 4
v -2 7 4
v -1 5 4
v -1 6 4
v 1 5 4
v 1 6 4
v 2 6 4
v 2 7 4
v 4 7 4
v 4 8 4
v 4 23 4
v 4 25 4
v 5 8 4
v 5 9 4
v 5 23 4
v 5 25 4
v 6 9 4
v 6 10 4
v 7 10 4
v 7 11 4
v 9 11 4
v 9 12 4
v 10 12 4
v 10 13 4
v 11 13 4
v 11 15 4
v 12 15 4
v 12 30 4
v -4 23 -0
v -4 25 -0
v 5 23 -0
v 5 25 -0
v -1 5 10
v 1 5 10
v -1 5 4
v 1 5 4
v -2 6 10
v -1 6 10
v 1 6 10
v 2 6 10
v -2 6 4
v -1 6 4
v 1 6 4
v 2 6 4
v -3 7 10
v -2 7 10
v 2 7 10
v 4 7 10
v -3 7 4
v -2 7 4
v 2 7 4
v 4 7 4
v -4 8 10
v -3 8 10
v 4 8 10
v 5 8 10
v -4 8 4
v -3 8 4
v 4 8 4
v 5 8 4
v -5 9 10
v -4 9 10
v 5 9 10
v 6 9 10
v -5 9 4
v -4 9 4
v 5 9 4
v 6 9 4
v -6 10 10
v -5 10 10
v 6 10 10
v 7 10 10
v -6 10 4
v -5 10 4
v 6 10 4
v 7 10 4
v -7 11 10
v -6 11 10
v 7 11 10
v 9 11 10
v -7 11 4
v -6 11 4
v 7 11 4
v 9 11 4
v -8 12 10
v -7 12 10
v 9 12 10
v 10 12 10
v -8 12 4
v -7 12 4
v 9 12 4
v 10 12 4
v -9 13 10
v -8 13 10
v 10 13 10
v 11 13 10
v -9 13 4
v -8 13 4
v 10 13 4
v 11 13 4
v -10 14 10
v -9 14 10
v -10 14 4
v -9 14 4
v 11 15 10
v 12 15 10
v 11 15 4
v 12 15 4
v -11 16 10
v -10 16 10
v -11 16 4
v -10 16 4
v -4 23 4
v -3 23 4
v 4 23 4
v 5 23 4
v -3 23 1
v 4 23 1
v -4 23 -0
v 5 23 -0
v -4 25 4
v -3 25 4
v 4 25 4
v 5 25 4
v -3 25 1
v 4 25 1
v -4 25 -0
v 5 25 -0
v -11 30 10
v 12 30 10
v -11 30 4
v 12 30 4

# faces
f 3/2/1 2/2/1 1/2/1
f 4/2/1 2/2/1 3/2/1
f 7/2/1 6/2/1 5/2/1
f 8/2/1 6/2/1 7/2/1
f 11/2/1 10/2/1 9/2/1
f 12/2/1 10/2/1 11/2/1
f 15/2/1 14/2/1 13/2/1
f 16/2/1 14/2/1 15/2/1
f 19/2/1 18/2/1 17/2/1
f 20/2/1 18/2/1 19/2/1
f 23/2/1 22/2/1 21/2/1
f 24/2/1 22/2/1 23/2/1
f 27/2/1 26/2/1 25/2/1
f 28/2/1 26/2/1 27/2/1
f 31/2/1 30/2/1 29/2/1
f 32/2/1 30/2/1 31/2/1
f 35/3/1 34/3/1 33/3/1
f 36/3/1 34/3/1 35/3/1
f 39/2/1 38/2/1 37/2/1
f 40/2/1 38/2/1 39/2/1
f 43/2/1 42/2/1 41/2/1
f 44/2/1 42/2/1 43/2/1
f 47/2/1 46/2/1 45/2/1
f 48/2/1 46/2/1 47/2/1
f 51/3/1 50/3/1 49/3/1
f 52/3/1 50/3/1 51/3/1
f 53/3/2 54/3/2 55/3/2
f 55/3/2 54/3/2 56/3/2
f 57/2/2 58/2/2 59/2/2
f 59/2/2 58/2/2 60/2/2
f 61/2/2 62/2/2 63/2/2
f 63/2/2 62/2/2 64/2/2
f 65/2/2 66/2/2 67/2/2
f 67/2/2 66/2/2 68/2/2
f 69/2/2 70/2/2 71/2/2
f 71/2/2 70/2/2 72/2/2
f 73/3/2 74/3/2 75/3/2
f 75/3/2 74/3/2 76/3/2
f 77/2/2 78/2/2 79/2/2
f 79/2/2 78/2/2 80/2/2
f 81/2/2 82/2/2 83/2/2
f 83/2/2 82/2/2 84/2/2
f 85/2/2 86/2/2 87/2/2
f 87/2/2 86/2/2 88/2/2
f 89/2/2 90/2/2 91/2/2
f 91/2/2 90/2/2 92/2/2
f 93/2/2 94/2/2 95/2/2
f 95/2/2 94/2/2 96/2/2
f 97/2/2 98/2/2 99/2/2
f 99/2/2 98/2/2 100/2/2
f 104/2/3 102/2/3 101/2/3
f 106/2/3 104/2/3 103/2/3
f 108/2/3 106/2/3 105/2/3
f 110/2/3 108/2/3 107/2/3
f 111/2/3 102/2/3 104/2/3
f 111/2/3 104/2/3 106/2/3
f 111/2/3 108/2/3 110/2/3
f 111/2/3 106/2/3 108/2/3
f 112/2/3 102/2/3 111/2/3
f 114/2/3 110/2/3 109/2/3
f 114/2/3 111/2/3 110/2/3
f 115/2/3 111/2/3 114/2/3
f 116/1/3 112/1/3 111/1/3
f 116/2/3 111/2/3 115/2/3
f 117/2/3 102/2/3 112/2/3
f 117/1/3 112/1/3 116/1/3
f 119/2/3 115/2/3 114/2/3
f 119/2/3 114/2/3 113/2/3
f 120/2/3 115/2/3 119/2/3
f 121/1/3 116/1/3 115/1/3
f 121/2/3 115/2/3 120/2/3
f 123/2/3 120/2/3 119/2/3
f 123/2/3 119/2/3 118/2/3
f 124/2/3 120/2/3 123/2/3
f 125/1/3 121/1/3 120/1/3
f 125/2/3 120/2/3 124/2/3
f 126/1/3 116/1/3 121/1/3
f 126/1/3 121/1/3 125/1/3
f 127/2/3 117/2/3 116/2/3
f 127/1/3 116/1/3 126/1/3
f 129/2/3 124/2/3 123/2/3
f 129/2/3 123/2/3 122/2/3
f 130/2/3 124/2/3 129/2/3
f 131/1/3 125/1/3 124/1/3
f 131/2/3 124/2/3 130/2/3
f 131/1/3 126/1/3 125/1/3
f 132/1/3 126/1/3 131/1/3
f 133/2/3 127/2/3 126/2/3
f 133/1/3 126/1/3 132/1/3
f 135/2/3 130/2/3 129/2/3
f 135/2/3 129/2/3 128/2/3
f 136/2/3 130/2/3 135/2/3
f 137/1/3 132/1/3 131/1/3
f 137/2/3 130/2/3 136/2/3
f 137/1/3 131/1/3 130/1/3
f 139/2/3 136/2/3 135/2/3
f 139/2/3 135/2/3 134/2/3
f 140/2/3 136/2/3 139/2/3
f 141/1/3 137/1/3 136/1/3
f 141/2/3 136/2/3 140/2/3
f 142/1/3 132/1/3 137/1/3
f 142/1/3 137/1/3 141/1/3
f 143/2/3 133/2/3 132/2/3
f 143/1/3 132/1/3 142/1/3
f 144/1/3 142/1/3 141/1/3
f 144/1/3 141/1/3 140/1/3
f 144/2/3 140/2/3 139/2/3
f 144/2/3 139/2/3 138/2/3
f 145/1/3 142/1/3 144/1/3
f 146/1/3 142/1/3 145/1/3
f 147/2/3 143/2/3 142/2/3
f 147/1/3 142/1/3 146/1/3
f 148/2/3 144/2/3 138/2/3
f 148/2/3 145/2/3 144/2/3
f 149/2/3 145/2/3 148/2/3
f 150/2/3 145/2/3 149/2/3
f 151/2/3 145/2/3 150/2/3
f 152/1/3 146/1/3 145/1/3
f 152/2/3 145/2/3 151/2/3
f 153/1/3 146/1/3 152/1/3
f 154/1/3 146/1/3 153/1/3
f 155/2/3 147/2/3 146/2/3
f 155/1/3 146/1/3 154/1/3
f 156/1/3 154/1/3 153/1/3
f 157/2/3 155/2/3 154/2/3
f 157/1/3 154/1/3 156/1/3
f 158/2/3 152/2/3 151/2/3
f 158/2/3 153/2/3 152/2/3
f 159/2/3 153/2/3 158/2/3
f 160/1/3 156/1/3 153/1/3
f 160/2/3 153/2/3 159/2/3
f 161/1/3 156/1/3 160/1/3
f 162/2/3 160/2/3 159/2/3
f 162/2/3 161/2/3 160/2/3
f 163/2/3 161/2/3 162/2/3
f 164/1/3 156/1/3 161/1/3
f 165/2/3 157/2/3 156/2/3
f 165/1/3 156/1/3 164/1/3
f 166/2/3 161/2/3 163/2/3
f 167/2/3 161/2/3 166/2/3
f 168/1/3 164/1/3 161/1/3
f 168/2/3 161/2/3 167/2/3
f 169/2/3 165/2/3 164/2/3
f 169/1/3 164/1/3 168/1/3
f 170/2/3 168/2/3 167/2/3
f 170/2/3 169/2/3 168/2/3
f 171/2/3 169/2/3 170/2/3
f 172/2/3 169/2/3 171/2/3
f 173/2/3 169/2/3 172/2/3
f 174/2/3 169/2/3 173/2/3
f 175/2/3 169/2/3 174/2/3
f 176/2/3 169/2/3 175/2/3
f 177/2/3 169/2/3 176/2/3
f 178/2/3 169/2/3 177/2/3
f 179/2/3 127/2/3 133/2/3
f 179/2/3 169/2/3 178/2/3
f 179/2/3 102/2/3 117/2/3
f 179/2/3 133/2/3 143/2/3
f 179/2/3 117/2/3 127/2/3
f 179/2/3 147/2/3 155/2/3
f 179/2/3 143/2/3 147/2/3
f 179/2/3 157/2/3 165/2/3
f 179/2/3 155/2/3 157/2/3
f 179/2/3 165/2/3 169/2/3
f 182/3/3 181/3/3 180/3/3
f 183/3/3 181/3/3 182/3/3
f 184/2/4 185/2/4 187/2/4
f 186/2/4 187/2/4 189/2/4
f 188/2/4 189/2/4 191/2/4
f 190/2/4 191/2/4 193/2/4
f 192/2/4 193/2/4 195/2/4
f 194/2/4 195/2/4 197/2/4
f 196/2/4 197/2/4 199/2/4
f 187/2/4 185/2/4 200/2/4
f 189/2/4 187/2/4 200/2/4
f 199/2/4 197/2/4 200/2/4
f 191/2/4 189/2/4 200/2/4
f 197/2/4 195/2/4 200/2/4
f 193/2/4 191/2/4 200/2/4
f 195/2/4 193/2/4 200/2/4
f 200/2/4 185/2/4 201/2/4
f 198/2/4 199/2/4 203/2/4
f 199/2/4 200/2/4 203/2/4
f 203/2/4 200/2/4 204/2/4
f 201/2/4 185/2/4 205/2/4
f 203/2/4 204/2/4 207/2/4
f 204/2/4 205/2/4 207/2/4
f 202/2/4 203/2/4 207/2/4
f 206/2/4 207/2/4 209/2/4
f 208/2/4 209/2/4 210/2/4
f 209/2/4 207/2/4 211/2/4
f 210/2/4 209/2/4 211/2/4
f 211/2/4 207/2/4 212/2/4
f 207/2/4 205/2/4 213/2/4
f 212/2/4 207/2/4 213/2/4
f 213/2/4 205/2/4 214/2/4
f 214/2/4 205/2/4 215/2/4
f 215/2/4 205/2/4 216/2/4
f 205/2/4 185/2/4 217/2/4
f 216/2/4 205/2/4 217/2/4
f 215/2/4 216/2/4 218/2/4
f 218/2/4 216/2/4 219/2/4
f 219/2/4 216/2/4 220/2/4
f 217/2/4 185/2/4 221/2/4
f 219/2/4 220/2/4 222/2/4
f 220/2/4 221/2/4 222/2/4
f 222/2/4 221/2/4 223/2/4
f 223/2/4 221/2/4 224/2/4
f 224/2/4 221/2/4 225/2/4
f 225/2/4 221/2/4 226/2/4
f 226/2/4 221/2/4 227/2/4
f 227/2/4 221/2/4 228/2/4
f 228/2/4 221/2/4 229/2/4
f 229/2/4 221/2/4 230/2/4
f 230/2/4 221/2/4 231/2/4
f 231/2/4 221/2/4 232/2/4
f 221/2/4 185/2/4 233/2/4
f 232/2/4 221/2/4 233/2/4
f 234/3/4 235/3/4 236/3/4
f 236/3/4 235/3/4 237/3/4
f 240/2/5 239/2/5 238/2/5
f 241/2/5 239/2/5 240/2/5
f 246/2/5 243/2/5 242/2/5
f 247/2/5 243/2/5 246/2/5
f 248/2/5 245/2/5 244/2/5
f 249/2/5 245/2/5 248/2/5
f 254/2/5 251/2/5 250/2/5
f 255/2/5 251/2/5 254/2/5
f 256/2/5 253/2/5 252/2/5
f 257/2/5 253/2/5 256/2/5
f 262/2/5 259/2/5 258/2/5
f 263/2/5 259/2/5 262/2/5
f 264/2/5 261/2/5 260/2/5
f 265/2/5 261/2/5 264/2/5
f 270/2/5 267/2/5 266/2/5
f 271/2/5 267/2/5 270/2/5
f 272/2/5 269/2/5 268/2/5
f 273/2/5 269/2/5 272/2/5
f 278/2/5 275/2/5 274/2/5
f 279/2/5 275/2/5 278/2/5
f 280/2/5 277/2/5 276/2/5
f 281/2/5 277/2/5 280/2/5
f 286/2/5 283/2/5 282/2/5
f 287/2/5 283/2/5 286/2/5
f 288/2/5 285/2/5 284/2/5
f 289/2/5 285/2/5 288/2/5
f 294/2/5 291/2/5 290/2/5
f 295/2/5 291/2/5 294/2/5
f 296/2/5 293/2/5 292/2/5
f 297/2/5 293/2/5 296/2/5
f 302/2/5 299/2/5 298/2/5
f 303/2/5 299/2/5 302/2/5
f 304/2/5 301/2/5 300/2/5
f 305/2/5 301/2/5 304/2/5
f 308/2/5 307/2/5 306/2/5
f 309/2/5 307/2/5 308/2/5
f 312/2/5 311/2/5 310/2/5
f 313/2/5 311/2/5 312/2/5
f 316/2/5 315/2/5 314/2/5
f 317/2/5 315/2/5 316/2/5
f 322/3/5 319/3/5 318/3/5
f 323/3/5 321/3/5 320/3/5
f 324/3/5 322/3/5 318/3/5
f 324/3/5 323/3/5 322/3/5
f 325/3/5 321/3/5 323/3/5
f 325/3/5 323/3/5 324/3/5
f 326/3/6 327/3/6 330/3/6
f 328/3/6 329/3/6 331/3/6
f 326/3/6 330/3/6 332/3/6
f 330/3/6 331/3/6 332/3/6
f 331/3/6 329/3/6 333/3/6
f 332/3/6 331/3/6 333/3/6
f 334/2/6 335/2/6 336/2/6
f 336/2/6 335/2/6 337/2/6
